<svg id="レイヤー_1" data-name="レイヤー 1" xmlns="http://www.w3.org/2000/svg" viewBox="0 0 138.97 22.53"><defs><style>.cls-1{fill:#2f7bb7;}</style></defs><title>ロゴ</title><path d="M634.68,377.56v2.31h2.6l3-.07.17.17c0,4.31-.17,6.93-.6,7.9s-1.79,1.45-3.88,1.45c-.28,0-.4-.07-.49-.29l-1-2.69a14.54,14.54,0,0,1-2.39,6.6c-.1.12-.17.21-.26.21a.5.5,0,0,1-.29-.16l-2.39-2.13c1.73-2.23,2.2-4.78,2.2-9.14v-3.29l-.07-3.62.17-.17,3.93.08h6c-.07-1.12-.09-2.3-.09-3.53l.14-.19h3.08l.14.16c0,1.28,0,2.44.07,3.56h2.82a12.48,12.48,0,0,0-2-1.9l0-.21,1.77-1.61.24-.05a13.41,13.41,0,0,1,2.58,2.13l0,.26-1.53,1.38,3-.08.16.17v2.65l-.16.17-3.48-.07h-3.1a44.22,44.22,0,0,0,1,5.82A17.43,17.43,0,0,0,647.6,379l.23-.12,2.82,1.35.12.26a23.49,23.49,0,0,1-3.53,6.84c.78,1.61,1.35,2.15,1.59,2.15s.52-.47.85-3.05l2,1.7a.63.63,0,0,1,.3.62c-.33,3.17-1.51,4.54-3.12,4.54-1.3,0-2.68-.78-4.19-3.48a24,24,0,0,1-5.28,3.44.85.85,0,0,1-.38.11.63.63,0,0,1-.4-.21L636.5,391a18.75,18.75,0,0,0,6.77-4.45,27.26,27.26,0,0,1-1-3.67c-.35-1.75-.59-3.5-.78-5.27Zm0,5.08c0,1.16-.1,2.32-.22,3.48a12,12,0,0,0,1.73,0,.76.76,0,0,0,.8-.66,18.37,18.37,0,0,0,.15-2.8Z" transform="translate(-607.12 -370.95)"/><path d="M656.27,379.45l-2.84.07-.17-.14v-2.65l.14-.15,2.87.08h1.18v-2c-.83.08-1.61.15-2.37.19-.4,0-.5,0-.57-.14l-1.34-2.37a45.21,45.21,0,0,0,8.73-1.2l.26,0a29.49,29.49,0,0,1,2.39,2.08l-.07.24c-1.19.28-2.46.52-3.79.73v2.47h1l2.37-.08.14.12v2.7l-.14.12-2.37-.07h-1V382l1.11-.74.22,0a16.21,16.21,0,0,1,2.53,3l0,.24L662.3,386l-.24,0a19.93,19.93,0,0,0-1.37-2.1v1.51l.19,8.07h-3.6l.22-9.18a25.06,25.06,0,0,1-2.51,4.38.36.36,0,0,1-.67-.05l-1.53-2.48a27.34,27.34,0,0,0,4-6.7Zm11.8,13.18h-3.31l.07-11.57V376.4l-.07-2.82.14-.14,3.27.07h3.17l3.1-.07.19.19-.07,2.88v4.38l.07,11.22h-3.41v-1.8h-3.15Zm3.15-5.09V376.23h-3.15v11.31Z" transform="translate(-607.12 -370.95)"/><path d="M677.64,386.9a18.53,18.53,0,0,0,3.5-5l.24-.1,3,1.47.08.26a23.67,23.67,0,0,1-3.7,5.38h-.26l-2.84-1.78Zm8.57-14.07.19-.17h3.43l.2.19v4h4l3.19-.08.19.17v3l-.17.19-3.14-.07H690v4.75l.07,3.19c.07,2.88-1.11,3.67-4.9,3.87-.48,0-.53,0-.74-.44l-1.64-3.14c3.22,0,3.39-.07,3.39-1.54v-6.69h-3.87l-3.43.07-.17-.19V377l.22-.15,3.26.08h4Zm12.22,13.9-2.81,2.11h-.24a21.66,21.66,0,0,0-4.08-5.07v-.21l2.61-1.9h.24a20.92,20.92,0,0,1,4.32,4.83Z" transform="translate(-607.12 -370.95)"/><path d="M717.46,384.21H706.73l-3.58.07-.17-.19v-3.44l.22-.14,3.43.07h10.71l3.69-.07.2.17v3.41l-.17.19Z" transform="translate(-607.12 -370.95)"/><path d="M726.43,387.23c1-.12,2-.21,2.91-.33,1.53-4.59,2.85-9,4.22-14l.22-.07,3.57.72.12.16c-1.44,4.88-2.73,8.76-4.15,12.68,2.16-.29,4.39-.67,6.53-1.11a33.76,33.76,0,0,0-1.87-2.83l.07-.24,2.64-1.61h.22a39.79,39.79,0,0,1,5.18,8l-.05.27-3.12,1.8-.26-.07c-.36-.8-.75-1.56-1.13-2.33-4.35,1-8.74,1.77-13.92,2.59l-.22-.1-1.08-3.36Z" transform="translate(-607.12 -370.95)"/><polygon class="cls-1" points="0 0.34 18.32 0.34 0 22.22 18.32 22.22 0 0.34"/></svg>